<?xml version="1.0" encoding="utf-8" standalone="no"?>
<!DOCTYPE svg PUBLIC "-//W3C//DTD SVG 1.1//EN"
  "http://www.w3.org/Graphics/SVG/1.1/DTD/svg11.dtd">
<!-- Created with matplotlib (https://matplotlib.org/) -->
<svg height="441.6394pt" version="1.1" viewBox="0 0 521.941772 441.6394" width="521.941772pt" xmlns="http://www.w3.org/2000/svg" xmlns:xlink="http://www.w3.org/1999/xlink">
 <metadata>
  <rdf:RDF xmlns:cc="http://creativecommons.org/ns#" xmlns:dc="http://purl.org/dc/elements/1.1/" xmlns:rdf="http://www.w3.org/1999/02/22-rdf-syntax-ns#">
   <cc:Work>
    <dc:type rdf:resource="http://purl.org/dc/dcmitype/StillImage"/>
    <dc:date>2021-12-18T12:32:07.036880</dc:date>
    <dc:format>image/svg+xml</dc:format>
    <dc:creator>
     <cc:Agent>
      <dc:title>Matplotlib v3.3.4, https://matplotlib.org/</dc:title>
     </cc:Agent>
    </dc:creator>
   </cc:Work>
  </rdf:RDF>
 </metadata>
 <defs>
  <style type="text/css">*{stroke-linecap:butt;stroke-linejoin:round;}</style>
 </defs>
 <g id="figure_1">
  <g id="patch_1">
   <path d="M 0 441.6394 
L 521.941772 441.6394 
L 521.941772 0 
L 0 0 
z
" style="fill:#ffffff;"/>
  </g>
  <g id="axes_1">
   <g id="patch_2">
    <path clip-path="url(#p56f8a1532a)" d="M 160.678482 396.828697 
L 172.495742 396.828697 
L 166.587112 405.35076 
z
" style="fill:#778899;"/>
   </g>
   <g id="patch_3">
    <path clip-path="url(#p56f8a1532a)" d="M 206.129482 396.828697 
L 217.946742 396.828697 
L 212.038112 405.35076 
z
" style="fill:#778899;"/>
   </g>
   <g id="patch_4">
    <path clip-path="url(#p56f8a1532a)" d="M 251.580482 396.828697 
L 263.397742 396.828697 
L 257.489112 405.35076 
z
" style="fill:#778899;"/>
   </g>
   <g id="patch_5">
    <path clip-path="url(#p56f8a1532a)" d="M 297.031482 396.828697 
L 308.848742 396.828697 
L 302.940112 405.35076 
z
" style="fill:#778899;"/>
   </g>
   <g id="patch_6">
    <path clip-path="url(#p56f8a1532a)" d="M 342.482482 396.828697 
L 354.299742 396.828697 
L 348.391112 405.35076 
z
" style="fill:#778899;"/>
   </g>
   <g id="patch_7">
    <path clip-path="url(#p56f8a1532a)" d="M 387.933482 396.828697 
L 399.750742 396.828697 
L 393.842112 405.35076 
z
" style="fill:#778899;"/>
   </g>
   <g id="patch_8">
    <path clip-path="url(#p56f8a1532a)" d="M 433.384482 396.828697 
L 445.201742 396.828697 
L 439.293112 405.35076 
z
" style="fill:#778899;"/>
   </g>
   <g id="patch_9">
    <path clip-path="url(#p56f8a1532a)" d="M 478.835482 396.828697 
L 490.652742 396.828697 
L 484.744112 405.35076 
z
" style="fill:#778899;"/>
   </g>
   <g id="line2d_1">
    <path clip-path="url(#p56f8a1532a)" d="M 96.592572 43.5608 
L 510.196672 43.5608 
" style="fill:none;stroke:#000000;stroke-linecap:square;stroke-width:2;"/>
   </g>
   <g id="line2d_2">
    <path clip-path="url(#p56f8a1532a)" d="M 96.592572 89.0118 
L 510.196672 89.0118 
" style="fill:none;stroke:#000000;stroke-linecap:square;stroke-width:2;"/>
   </g>
   <g id="line2d_3">
    <path clip-path="url(#p56f8a1532a)" d="M 96.592572 134.4628 
L 510.196672 134.4628 
" style="fill:none;stroke:#000000;stroke-linecap:square;stroke-width:2;"/>
   </g>
   <g id="line2d_4">
    <path clip-path="url(#p56f8a1532a)" d="M 96.592572 179.9138 
L 510.196672 179.9138 
" style="fill:none;stroke:#000000;stroke-linecap:square;stroke-width:2;"/>
   </g>
   <g id="line2d_5">
    <path clip-path="url(#p56f8a1532a)" d="M 96.592572 225.3648 
L 510.196672 225.3648 
" style="fill:none;stroke:#000000;stroke-linecap:square;stroke-width:2;"/>
   </g>
   <g id="line2d_6">
    <path clip-path="url(#p56f8a1532a)" d="M 96.592572 270.8158 
L 510.196672 270.8158 
" style="fill:none;stroke:#000000;stroke-linecap:square;stroke-width:2;"/>
   </g>
   <g id="line2d_7">
    <path clip-path="url(#p56f8a1532a)" d="M 96.592572 316.2668 
L 510.196672 316.2668 
" style="fill:none;stroke:#000000;stroke-linecap:square;stroke-width:2;"/>
   </g>
   <g id="line2d_8">
    <path clip-path="url(#p56f8a1532a)" d="M 96.592572 361.7178 
L 510.196672 361.7178 
" style="fill:none;stroke:#000000;stroke-linecap:square;stroke-width:2;"/>
   </g>
   <g id="line2d_9">
    <path clip-path="url(#p56f8a1532a)" d="M 96.592572 405.691643 
L 510.196672 405.691643 
" style="fill:none;stroke:#778899;stroke-linecap:square;stroke-width:2;"/>
   </g>
   <g id="line2d_10">
    <path clip-path="url(#p56f8a1532a)" d="M 96.592572 408.645958 
L 510.196672 408.645958 
" style="fill:none;stroke:#778899;stroke-linecap:square;stroke-width:2;"/>
   </g>
   <g id="patch_10">
    <path clip-path="url(#p56f8a1532a)" d="M 112.273167 66.2863 
L 129.999057 66.2863 
L 129.999057 20.8353 
L 112.273167 20.8353 
z
" style="fill:#bdbdbd;opacity:0.6;"/>
   </g>
   <g id="patch_11">
    <path clip-path="url(#p56f8a1532a)" d="M 112.273167 111.7373 
L 129.999057 111.7373 
L 129.999057 66.2863 
L 112.273167 66.2863 
z
" style="fill:#bdbdbd;opacity:0.6;"/>
   </g>
   <g id="patch_12">
    <path clip-path="url(#p56f8a1532a)" d="M 112.273167 157.1883 
L 129.999057 157.1883 
L 129.999057 111.7373 
L 112.273167 111.7373 
z
" style="fill:#bdbdbd;opacity:0.6;"/>
   </g>
   <g id="patch_13">
    <path clip-path="url(#p56f8a1532a)" d="M 112.273167 202.6393 
L 129.999057 202.6393 
L 129.999057 157.1883 
L 112.273167 157.1883 
z
" style="fill:#bdbdbd;opacity:0.6;"/>
   </g>
   <g id="patch_14">
    <path clip-path="url(#p56f8a1532a)" d="M 112.273167 248.0903 
L 129.999057 248.0903 
L 129.999057 202.6393 
L 112.273167 202.6393 
z
" style="fill:#bdbdbd;opacity:0.6;"/>
   </g>
   <g id="patch_15">
    <path clip-path="url(#p56f8a1532a)" d="M 112.273167 293.5413 
L 129.999057 293.5413 
L 129.999057 248.0903 
L 112.273167 248.0903 
z
" style="fill:#bdbdbd;opacity:0.6;"/>
   </g>
   <g id="patch_16">
    <path clip-path="url(#p56f8a1532a)" d="M 112.273167 338.9923 
L 129.999057 338.9923 
L 129.999057 293.5413 
L 112.273167 293.5413 
z
" style="fill:#bdbdbd;opacity:0.6;"/>
   </g>
   <g id="patch_17">
    <path clip-path="url(#p56f8a1532a)" d="M 112.273167 384.4433 
L 129.999057 384.4433 
L 129.999057 338.9923 
L 112.273167 338.9923 
z
" style="fill:#bdbdbd;opacity:0.6;"/>
   </g>
   <g id="line2d_11">
    <path clip-path="url(#p56f8a1532a)" d="M 168.06427 43.5608 
L 168.06427 396.828697 
" style="fill:none;stroke:#778899;stroke-linecap:square;stroke-width:2;"/>
   </g>
   <g id="line2d_12">
    <path clip-path="url(#p56f8a1532a)" d="M 165.109955 43.5608 
L 165.109955 396.828697 
" style="fill:none;stroke:#778899;stroke-linecap:square;stroke-width:2;"/>
   </g>
   <g id="line2d_13">
    <path clip-path="url(#p56f8a1532a)" d="M 213.51527 89.0118 
L 213.51527 396.828697 
" style="fill:none;stroke:#778899;stroke-linecap:square;stroke-width:2;"/>
   </g>
   <g id="line2d_14">
    <path clip-path="url(#p56f8a1532a)" d="M 210.560955 89.0118 
L 210.560955 396.828697 
" style="fill:none;stroke:#778899;stroke-linecap:square;stroke-width:2;"/>
   </g>
   <g id="line2d_15">
    <path clip-path="url(#p56f8a1532a)" d="M 258.96627 134.4628 
L 258.96627 396.828697 
" style="fill:none;stroke:#778899;stroke-linecap:square;stroke-width:2;"/>
   </g>
   <g id="line2d_16">
    <path clip-path="url(#p56f8a1532a)" d="M 256.011955 134.4628 
L 256.011955 396.828697 
" style="fill:none;stroke:#778899;stroke-linecap:square;stroke-width:2;"/>
   </g>
   <g id="line2d_17">
    <path clip-path="url(#p56f8a1532a)" d="M 304.41727 179.9138 
L 304.41727 396.828697 
" style="fill:none;stroke:#778899;stroke-linecap:square;stroke-width:2;"/>
   </g>
   <g id="line2d_18">
    <path clip-path="url(#p56f8a1532a)" d="M 301.462955 179.9138 
L 301.462955 396.828697 
" style="fill:none;stroke:#778899;stroke-linecap:square;stroke-width:2;"/>
   </g>
   <g id="line2d_19">
    <path clip-path="url(#p56f8a1532a)" d="M 349.86827 225.3648 
L 349.86827 396.828697 
" style="fill:none;stroke:#778899;stroke-linecap:square;stroke-width:2;"/>
   </g>
   <g id="line2d_20">
    <path clip-path="url(#p56f8a1532a)" d="M 346.913955 225.3648 
L 346.913955 396.828697 
" style="fill:none;stroke:#778899;stroke-linecap:square;stroke-width:2;"/>
   </g>
   <g id="line2d_21">
    <path clip-path="url(#p56f8a1532a)" d="M 395.31927 270.8158 
L 395.31927 396.828697 
" style="fill:none;stroke:#778899;stroke-linecap:square;stroke-width:2;"/>
   </g>
   <g id="line2d_22">
    <path clip-path="url(#p56f8a1532a)" d="M 392.364955 270.8158 
L 392.364955 396.828697 
" style="fill:none;stroke:#778899;stroke-linecap:square;stroke-width:2;"/>
   </g>
   <g id="line2d_23">
    <path clip-path="url(#p56f8a1532a)" d="M 440.77027 316.2668 
L 440.77027 396.828697 
" style="fill:none;stroke:#778899;stroke-linecap:square;stroke-width:2;"/>
   </g>
   <g id="line2d_24">
    <path clip-path="url(#p56f8a1532a)" d="M 437.815955 316.2668 
L 437.815955 396.828697 
" style="fill:none;stroke:#778899;stroke-linecap:square;stroke-width:2;"/>
   </g>
   <g id="line2d_25">
    <path clip-path="url(#p56f8a1532a)" d="M 486.22127 361.7178 
L 486.22127 396.828697 
" style="fill:none;stroke:#778899;stroke-linecap:square;stroke-width:2;"/>
   </g>
   <g id="line2d_26">
    <path clip-path="url(#p56f8a1532a)" d="M 483.266955 361.7178 
L 483.266955 396.828697 
" style="fill:none;stroke:#778899;stroke-linecap:square;stroke-width:2;"/>
   </g>
   <g id="line2d_27">
    <path clip-path="url(#p56f8a1532a)" d="M 105.682772 411.7139 
L 110.227872 402.6237 
" style="fill:none;stroke:#778899;stroke-linecap:square;stroke-width:1.5;"/>
   </g>
   <g id="patch_18">
    <path clip-path="url(#p56f8a1532a)" d="M 151.815537 58.332375 
L 181.358687 58.332375 
L 181.358687 28.789225 
L 151.815537 28.789225 
z
" style="stroke:#000000;stroke-linejoin:miter;stroke-width:1.5;"/>
   </g>
   <g id="patch_19">
    <path clip-path="url(#p56f8a1532a)" d="M 176.927215 47.992272 
C 176.927215 45.250959 175.837071 42.619118 173.898669 40.680716 
C 171.960267 38.742314 169.328426 37.65217 166.587112 37.65217 
C 163.845798 37.65217 161.213957 38.742314 159.275556 40.680716 
C 157.337154 42.619118 156.24701 45.250959 156.24701 47.992272 
" style="fill:none;stroke:#ffffff;stroke-linejoin:miter;stroke-width:2;"/>
   </g>
   <g id="patch_20">
    <path clip-path="url(#p56f8a1532a)" d="M 197.266537 103.783375 
L 226.809687 103.783375 
L 226.809687 74.240225 
L 197.266537 74.240225 
z
" style="stroke:#000000;stroke-linejoin:miter;stroke-width:1.5;"/>
   </g>
   <g id="patch_21">
    <path clip-path="url(#p56f8a1532a)" d="M 222.378215 93.443272 
C 222.378215 90.701959 221.288071 88.070118 219.349669 86.131716 
C 217.411267 84.193314 214.779426 83.10317 212.038112 83.10317 
C 209.296798 83.10317 206.664957 84.193314 204.726556 86.131716 
C 202.788154 88.070118 201.69801 90.701959 201.69801 93.443272 
" style="fill:none;stroke:#ffffff;stroke-linejoin:miter;stroke-width:2;"/>
   </g>
   <g id="patch_22">
    <path clip-path="url(#p56f8a1532a)" d="M 242.717537 149.234375 
L 272.260687 149.234375 
L 272.260687 119.691225 
L 242.717537 119.691225 
z
" style="stroke:#000000;stroke-linejoin:miter;stroke-width:1.5;"/>
   </g>
   <g id="patch_23">
    <path clip-path="url(#p56f8a1532a)" d="M 267.829215 138.894272 
C 267.829215 136.152959 266.739071 133.521118 264.800669 131.582716 
C 262.862267 129.644314 260.230426 128.55417 257.489112 128.55417 
C 254.747798 128.55417 252.115957 129.644314 250.177556 131.582716 
C 248.239154 133.521118 247.14901 136.152959 247.14901 138.894272 
" style="fill:none;stroke:#ffffff;stroke-linejoin:miter;stroke-width:2;"/>
   </g>
   <g id="patch_24">
    <path clip-path="url(#p56f8a1532a)" d="M 288.168537 194.685375 
L 317.711687 194.685375 
L 317.711687 165.142225 
L 288.168537 165.142225 
z
" style="stroke:#000000;stroke-linejoin:miter;stroke-width:1.5;"/>
   </g>
   <g id="patch_25">
    <path clip-path="url(#p56f8a1532a)" d="M 313.280215 184.345273 
C 313.280215 181.603959 312.190071 178.972118 310.251669 177.033716 
C 308.313267 175.095314 305.681426 174.00517 302.940112 174.00517 
C 300.198798 174.00517 297.566957 175.095314 295.628556 177.033716 
C 293.690154 178.972118 292.60001 181.603959 292.60001 184.345273 
" style="fill:none;stroke:#ffffff;stroke-linejoin:miter;stroke-width:2;"/>
   </g>
   <g id="patch_26">
    <path clip-path="url(#p56f8a1532a)" d="M 333.619537 240.136375 
L 363.162687 240.136375 
L 363.162687 210.593225 
L 333.619537 210.593225 
z
" style="stroke:#000000;stroke-linejoin:miter;stroke-width:1.5;"/>
   </g>
   <g id="patch_27">
    <path clip-path="url(#p56f8a1532a)" d="M 358.731215 229.796272 
C 358.731215 227.054959 357.641071 224.423118 355.702669 222.484716 
C 353.764267 220.546314 351.132426 219.45617 348.391112 219.45617 
C 345.649798 219.45617 343.017957 220.546314 341.079556 222.484716 
C 339.141154 224.423118 338.05101 227.054959 338.05101 229.796272 
" style="fill:none;stroke:#ffffff;stroke-linejoin:miter;stroke-width:2;"/>
   </g>
   <g id="patch_28">
    <path clip-path="url(#p56f8a1532a)" d="M 379.070537 285.587375 
L 408.613687 285.587375 
L 408.613687 256.044225 
L 379.070537 256.044225 
z
" style="stroke:#000000;stroke-linejoin:miter;stroke-width:1.5;"/>
   </g>
   <g id="patch_29">
    <path clip-path="url(#p56f8a1532a)" d="M 404.182215 275.247273 
C 404.182215 272.505959 403.092071 269.874118 401.153669 267.935716 
C 399.215267 265.997314 396.583426 264.90717 393.842112 264.90717 
C 391.100798 264.90717 388.468957 265.997314 386.530556 267.935716 
C 384.592154 269.874118 383.50201 272.505959 383.50201 275.247273 
" style="fill:none;stroke:#ffffff;stroke-linejoin:miter;stroke-width:2;"/>
   </g>
   <g id="patch_30">
    <path clip-path="url(#p56f8a1532a)" d="M 424.521537 331.038375 
L 454.064687 331.038375 
L 454.064687 301.495225 
L 424.521537 301.495225 
z
" style="stroke:#000000;stroke-linejoin:miter;stroke-width:1.5;"/>
   </g>
   <g id="patch_31">
    <path clip-path="url(#p56f8a1532a)" d="M 449.633215 320.698272 
C 449.633215 317.956959 448.543071 315.325118 446.604669 313.386716 
C 444.666267 311.448314 442.034426 310.35817 439.293112 310.35817 
C 436.551798 310.35817 433.919957 311.448314 431.981556 313.386716 
C 430.043154 315.325118 428.95301 317.956959 428.95301 320.698272 
" style="fill:none;stroke:#ffffff;stroke-linejoin:miter;stroke-width:2;"/>
   </g>
   <g id="patch_32">
    <path clip-path="url(#p56f8a1532a)" d="M 469.972537 376.489375 
L 499.515687 376.489375 
L 499.515687 346.946225 
L 469.972537 346.946225 
z
" style="stroke:#000000;stroke-linejoin:miter;stroke-width:1.5;"/>
   </g>
   <g id="patch_33">
    <path clip-path="url(#p56f8a1532a)" d="M 495.084215 366.149272 
C 495.084215 363.407959 493.994071 360.776118 492.055669 358.837716 
C 490.117267 356.899314 487.485426 355.80917 484.744112 355.80917 
C 482.002798 355.80917 479.370957 356.899314 477.432556 358.837716 
C 475.494154 360.776118 474.40401 363.407959 474.40401 366.149272 
" style="fill:none;stroke:#ffffff;stroke-linejoin:miter;stroke-width:2;"/>
   </g>
   <g id="line2d_28">
    <path clip-path="url(#p56f8a1532a)" d="M 166.587112 47.992272 
L 176.927215 37.65217 
" style="fill:none;stroke:#ffffff;stroke-linecap:square;stroke-width:2;"/>
   </g>
   <g id="line2d_29">
    <path clip-path="url(#p56f8a1532a)" d="M 212.038112 93.443272 
L 222.378215 83.10317 
" style="fill:none;stroke:#ffffff;stroke-linecap:square;stroke-width:2;"/>
   </g>
   <g id="line2d_30">
    <path clip-path="url(#p56f8a1532a)" d="M 257.489112 138.894272 
L 267.829215 128.55417 
" style="fill:none;stroke:#ffffff;stroke-linecap:square;stroke-width:2;"/>
   </g>
   <g id="line2d_31">
    <path clip-path="url(#p56f8a1532a)" d="M 302.940112 184.345272 
L 313.280215 174.00517 
" style="fill:none;stroke:#ffffff;stroke-linecap:square;stroke-width:2;"/>
   </g>
   <g id="line2d_32">
    <path clip-path="url(#p56f8a1532a)" d="M 348.391112 229.796272 
L 358.731215 219.45617 
" style="fill:none;stroke:#ffffff;stroke-linecap:square;stroke-width:2;"/>
   </g>
   <g id="line2d_33">
    <path clip-path="url(#p56f8a1532a)" d="M 393.842112 275.247273 
L 404.182215 264.90717 
" style="fill:none;stroke:#ffffff;stroke-linecap:square;stroke-width:2;"/>
   </g>
   <g id="line2d_34">
    <path clip-path="url(#p56f8a1532a)" d="M 439.293112 320.698272 
L 449.633215 310.35817 
" style="fill:none;stroke:#ffffff;stroke-linecap:square;stroke-width:2;"/>
   </g>
   <g id="line2d_35">
    <path clip-path="url(#p56f8a1532a)" d="M 484.744112 366.149272 
L 495.084215 355.80917 
" style="fill:none;stroke:#ffffff;stroke-linecap:square;stroke-width:2;"/>
   </g>
   <g id="line2d_36">
    <path clip-path="url(#p56f8a1532a)" d="M 121.136112 20.8353 
L 121.136112 66.2863 
" style="fill:none;stroke:#000000;stroke-dasharray:3.7,1.6;stroke-dashoffset:0;"/>
   </g>
   <g id="line2d_37">
    <path clip-path="url(#p56f8a1532a)" d="M 121.136112 66.2863 
L 121.136112 111.7373 
" style="fill:none;stroke:#000000;stroke-dasharray:3.7,1.6;stroke-dashoffset:0;"/>
   </g>
   <g id="line2d_38">
    <path clip-path="url(#p56f8a1532a)" d="M 121.136112 111.7373 
L 121.136112 157.1883 
" style="fill:none;stroke:#000000;stroke-dasharray:3.7,1.6;stroke-dashoffset:0;"/>
   </g>
   <g id="line2d_39">
    <path clip-path="url(#p56f8a1532a)" d="M 121.136112 157.1883 
L 121.136112 202.6393 
" style="fill:none;stroke:#000000;stroke-dasharray:3.7,1.6;stroke-dashoffset:0;"/>
   </g>
   <g id="line2d_40">
    <path clip-path="url(#p56f8a1532a)" d="M 121.136112 202.6393 
L 121.136112 248.0903 
" style="fill:none;stroke:#000000;stroke-dasharray:3.7,1.6;stroke-dashoffset:0;"/>
   </g>
   <g id="line2d_41">
    <path clip-path="url(#p56f8a1532a)" d="M 121.136112 248.0903 
L 121.136112 293.5413 
" style="fill:none;stroke:#000000;stroke-dasharray:3.7,1.6;stroke-dashoffset:0;"/>
   </g>
   <g id="line2d_42">
    <path clip-path="url(#p56f8a1532a)" d="M 121.136112 293.5413 
L 121.136112 338.9923 
" style="fill:none;stroke:#000000;stroke-dasharray:3.7,1.6;stroke-dashoffset:0;"/>
   </g>
   <g id="line2d_43">
    <path clip-path="url(#p56f8a1532a)" d="M 121.136112 338.9923 
L 121.136112 384.4433 
" style="fill:none;stroke:#000000;stroke-dasharray:3.7,1.6;stroke-dashoffset:0;"/>
   </g>
   <g id="text_1">
    <g clip-path="url(#p56f8a1532a)">
     <!-- 0 -->
     <g transform="translate(177.949862 400.460825)scale(0.104 -0.104)">
      <defs>
       <path d="M 31.78125 66.40625 
Q 24.171875 66.40625 20.328125 58.90625 
Q 16.5 51.421875 16.5 36.375 
Q 16.5 21.390625 20.328125 13.890625 
Q 24.171875 6.390625 31.78125 6.390625 
Q 39.453125 6.390625 43.28125 13.890625 
Q 47.125 21.390625 47.125 36.375 
Q 47.125 51.421875 43.28125 58.90625 
Q 39.453125 66.40625 31.78125 66.40625 
z
M 31.78125 74.21875 
Q 44.046875 74.21875 50.515625 64.515625 
Q 56.984375 54.828125 56.984375 36.375 
Q 56.984375 17.96875 50.515625 8.265625 
Q 44.046875 -1.421875 31.78125 -1.421875 
Q 19.53125 -1.421875 13.0625 8.265625 
Q 6.59375 17.96875 6.59375 36.375 
Q 6.59375 54.828125 13.0625 64.515625 
Q 19.53125 74.21875 31.78125 74.21875 
z
" id="DejaVuSans-48"/>
      </defs>
      <use xlink:href="#DejaVuSans-48"/>
     </g>
    </g>
   </g>
   <g id="text_2">
    <g clip-path="url(#p56f8a1532a)">
     <!-- 1 -->
     <g transform="translate(223.400862 400.460825)scale(0.104 -0.104)">
      <defs>
       <path d="M 12.40625 8.296875 
L 28.515625 8.296875 
L 28.515625 63.921875 
L 10.984375 60.40625 
L 10.984375 69.390625 
L 28.421875 72.90625 
L 38.28125 72.90625 
L 38.28125 8.296875 
L 54.390625 8.296875 
L 54.390625 0 
L 12.40625 0 
z
" id="DejaVuSans-49"/>
      </defs>
      <use xlink:href="#DejaVuSans-49"/>
     </g>
    </g>
   </g>
   <g id="text_3">
    <g clip-path="url(#p56f8a1532a)">
     <!-- 2 -->
     <g transform="translate(268.851862 400.460825)scale(0.104 -0.104)">
      <defs>
       <path d="M 19.1875 8.296875 
L 53.609375 8.296875 
L 53.609375 0 
L 7.328125 0 
L 7.328125 8.296875 
Q 12.9375 14.109375 22.625 23.890625 
Q 32.328125 33.6875 34.8125 36.53125 
Q 39.546875 41.84375 41.421875 45.53125 
Q 43.3125 49.21875 43.3125 52.78125 
Q 43.3125 58.59375 39.234375 62.25 
Q 35.15625 65.921875 28.609375 65.921875 
Q 23.96875 65.921875 18.8125 64.3125 
Q 13.671875 62.703125 7.8125 59.421875 
L 7.8125 69.390625 
Q 13.765625 71.78125 18.9375 73 
Q 24.125 74.21875 28.421875 74.21875 
Q 39.75 74.21875 46.484375 68.546875 
Q 53.21875 62.890625 53.21875 53.421875 
Q 53.21875 48.921875 51.53125 44.890625 
Q 49.859375 40.875 45.40625 35.40625 
Q 44.1875 33.984375 37.640625 27.21875 
Q 31.109375 20.453125 19.1875 8.296875 
z
" id="DejaVuSans-50"/>
      </defs>
      <use xlink:href="#DejaVuSans-50"/>
     </g>
    </g>
   </g>
   <g id="text_4">
    <g clip-path="url(#p56f8a1532a)">
     <!-- 3 -->
     <g transform="translate(314.302862 400.460825)scale(0.104 -0.104)">
      <defs>
       <path d="M 40.578125 39.3125 
Q 47.65625 37.796875 51.625 33 
Q 55.609375 28.21875 55.609375 21.1875 
Q 55.609375 10.40625 48.1875 4.484375 
Q 40.765625 -1.421875 27.09375 -1.421875 
Q 22.515625 -1.421875 17.65625 -0.515625 
Q 12.796875 0.390625 7.625 2.203125 
L 7.625 11.71875 
Q 11.71875 9.328125 16.59375 8.109375 
Q 21.484375 6.890625 26.8125 6.890625 
Q 36.078125 6.890625 40.9375 10.546875 
Q 45.796875 14.203125 45.796875 21.1875 
Q 45.796875 27.640625 41.28125 31.265625 
Q 36.765625 34.90625 28.71875 34.90625 
L 20.21875 34.90625 
L 20.21875 43.015625 
L 29.109375 43.015625 
Q 36.375 43.015625 40.234375 45.921875 
Q 44.09375 48.828125 44.09375 54.296875 
Q 44.09375 59.90625 40.109375 62.90625 
Q 36.140625 65.921875 28.71875 65.921875 
Q 24.65625 65.921875 20.015625 65.03125 
Q 15.375 64.15625 9.8125 62.3125 
L 9.8125 71.09375 
Q 15.4375 72.65625 20.34375 73.4375 
Q 25.25 74.21875 29.59375 74.21875 
Q 40.828125 74.21875 47.359375 69.109375 
Q 53.90625 64.015625 53.90625 55.328125 
Q 53.90625 49.265625 50.4375 45.09375 
Q 46.96875 40.921875 40.578125 39.3125 
z
" id="DejaVuSans-51"/>
      </defs>
      <use xlink:href="#DejaVuSans-51"/>
     </g>
    </g>
   </g>
   <g id="text_5">
    <g clip-path="url(#p56f8a1532a)">
     <!-- 4 -->
     <g transform="translate(359.753862 400.460825)scale(0.104 -0.104)">
      <defs>
       <path d="M 37.796875 64.3125 
L 12.890625 25.390625 
L 37.796875 25.390625 
z
M 35.203125 72.90625 
L 47.609375 72.90625 
L 47.609375 25.390625 
L 58.015625 25.390625 
L 58.015625 17.1875 
L 47.609375 17.1875 
L 47.609375 0 
L 37.796875 0 
L 37.796875 17.1875 
L 4.890625 17.1875 
L 4.890625 26.703125 
z
" id="DejaVuSans-52"/>
      </defs>
      <use xlink:href="#DejaVuSans-52"/>
     </g>
    </g>
   </g>
   <g id="text_6">
    <g clip-path="url(#p56f8a1532a)">
     <!-- 5 -->
     <g transform="translate(405.204862 400.460825)scale(0.104 -0.104)">
      <defs>
       <path d="M 10.796875 72.90625 
L 49.515625 72.90625 
L 49.515625 64.59375 
L 19.828125 64.59375 
L 19.828125 46.734375 
Q 21.96875 47.46875 24.109375 47.828125 
Q 26.265625 48.1875 28.421875 48.1875 
Q 40.625 48.1875 47.75 41.5 
Q 54.890625 34.8125 54.890625 23.390625 
Q 54.890625 11.625 47.5625 5.09375 
Q 40.234375 -1.421875 26.90625 -1.421875 
Q 22.3125 -1.421875 17.546875 -0.640625 
Q 12.796875 0.140625 7.71875 1.703125 
L 7.71875 11.625 
Q 12.109375 9.234375 16.796875 8.0625 
Q 21.484375 6.890625 26.703125 6.890625 
Q 35.15625 6.890625 40.078125 11.328125 
Q 45.015625 15.765625 45.015625 23.390625 
Q 45.015625 31 40.078125 35.4375 
Q 35.15625 39.890625 26.703125 39.890625 
Q 22.75 39.890625 18.8125 39.015625 
Q 14.890625 38.140625 10.796875 36.28125 
z
" id="DejaVuSans-53"/>
      </defs>
      <use xlink:href="#DejaVuSans-53"/>
     </g>
    </g>
   </g>
   <g id="text_7">
    <g clip-path="url(#p56f8a1532a)">
     <!-- 6 -->
     <g transform="translate(450.655862 400.460825)scale(0.104 -0.104)">
      <defs>
       <path d="M 33.015625 40.375 
Q 26.375 40.375 22.484375 35.828125 
Q 18.609375 31.296875 18.609375 23.390625 
Q 18.609375 15.53125 22.484375 10.953125 
Q 26.375 6.390625 33.015625 6.390625 
Q 39.65625 6.390625 43.53125 10.953125 
Q 47.40625 15.53125 47.40625 23.390625 
Q 47.40625 31.296875 43.53125 35.828125 
Q 39.65625 40.375 33.015625 40.375 
z
M 52.59375 71.296875 
L 52.59375 62.3125 
Q 48.875 64.0625 45.09375 64.984375 
Q 41.3125 65.921875 37.59375 65.921875 
Q 27.828125 65.921875 22.671875 59.328125 
Q 17.53125 52.734375 16.796875 39.40625 
Q 19.671875 43.65625 24.015625 45.921875 
Q 28.375 48.1875 33.59375 48.1875 
Q 44.578125 48.1875 50.953125 41.515625 
Q 57.328125 34.859375 57.328125 23.390625 
Q 57.328125 12.15625 50.6875 5.359375 
Q 44.046875 -1.421875 33.015625 -1.421875 
Q 20.359375 -1.421875 13.671875 8.265625 
Q 6.984375 17.96875 6.984375 36.375 
Q 6.984375 53.65625 15.1875 63.9375 
Q 23.390625 74.21875 37.203125 74.21875 
Q 40.921875 74.21875 44.703125 73.484375 
Q 48.484375 72.75 52.59375 71.296875 
z
" id="DejaVuSans-54"/>
      </defs>
      <use xlink:href="#DejaVuSans-54"/>
     </g>
    </g>
   </g>
   <g id="text_8">
    <g clip-path="url(#p56f8a1532a)">
     <!-- 7 -->
     <g transform="translate(496.106862 400.460825)scale(0.104 -0.104)">
      <defs>
       <path d="M 8.203125 72.90625 
L 55.078125 72.90625 
L 55.078125 68.703125 
L 28.609375 0 
L 18.3125 0 
L 43.21875 64.59375 
L 8.203125 64.59375 
z
" id="DejaVuSans-55"/>
      </defs>
      <use xlink:href="#DejaVuSans-55"/>
     </g>
    </g>
   </g>
   <g id="text_9">
    <g clip-path="url(#p56f8a1532a)">
     <!-- ${q}_{0}$ |0&gt; -->
     <g transform="translate(34.852372 47.86705)scale(0.1625 -0.1625)">
      <defs>
       <path d="M 41.703125 8.203125 
Q 38.09375 3.46875 33.171875 1.015625 
Q 28.265625 -1.421875 22.3125 -1.421875 
Q 14.015625 -1.421875 9.296875 4.171875 
Q 4.59375 9.765625 4.59375 19.578125 
Q 4.59375 27.484375 7.5 34.859375 
Q 10.40625 42.234375 15.828125 48.09375 
Q 19.34375 51.90625 23.90625 53.953125 
Q 28.46875 56 33.5 56 
Q 39.546875 56 43.453125 53.609375 
Q 47.359375 51.21875 49.125 46.390625 
L 50.6875 54.59375 
L 59.71875 54.59375 
L 45.125 -20.609375 
L 36.078125 -20.609375 
z
M 13.921875 20.90625 
Q 13.921875 13.671875 16.9375 9.890625 
Q 19.96875 6.109375 25.6875 6.109375 
Q 34.1875 6.109375 40.1875 14.234375 
Q 46.1875 22.359375 46.1875 33.984375 
Q 46.1875 41.015625 43.078125 44.75 
Q 39.984375 48.484375 34.1875 48.484375 
Q 29.9375 48.484375 26.3125 46.5 
Q 22.703125 44.53125 20.015625 40.71875 
Q 17.1875 36.71875 15.546875 31.34375 
Q 13.921875 25.984375 13.921875 20.90625 
z
" id="DejaVuSans-Oblique-113"/>
       <path id="DejaVuSans-32"/>
       <path d="M 21 76.421875 
L 21 -23.578125 
L 12.703125 -23.578125 
L 12.703125 76.421875 
z
" id="DejaVuSans-124"/>
       <path d="M 10.59375 49.21875 
L 10.59375 58.109375 
L 73.1875 35.40625 
L 73.1875 27.296875 
L 10.59375 4.59375 
L 10.59375 13.484375 
L 60.890625 31.296875 
z
" id="DejaVuSans-62"/>
      </defs>
      <use transform="translate(0 0.578125)" xlink:href="#DejaVuSans-Oblique-113"/>
      <use transform="translate(63.476562 -15.828125)scale(0.7)" xlink:href="#DejaVuSans-48"/>
      <use transform="translate(110.74707 0.578125)" xlink:href="#DejaVuSans-32"/>
      <use transform="translate(142.53418 0.578125)" xlink:href="#DejaVuSans-124"/>
      <use transform="translate(176.225586 0.578125)" xlink:href="#DejaVuSans-48"/>
      <use transform="translate(239.848633 0.578125)" xlink:href="#DejaVuSans-62"/>
     </g>
    </g>
   </g>
   <g id="text_10">
    <g clip-path="url(#p56f8a1532a)">
     <!-- ${q}_{1}$ |0&gt; -->
     <g transform="translate(34.852372 93.31805)scale(0.1625 -0.1625)">
      <use transform="translate(0 0.578125)" xlink:href="#DejaVuSans-Oblique-113"/>
      <use transform="translate(63.476562 -15.828125)scale(0.7)" xlink:href="#DejaVuSans-49"/>
      <use transform="translate(110.74707 0.578125)" xlink:href="#DejaVuSans-32"/>
      <use transform="translate(142.53418 0.578125)" xlink:href="#DejaVuSans-124"/>
      <use transform="translate(176.225586 0.578125)" xlink:href="#DejaVuSans-48"/>
      <use transform="translate(239.848633 0.578125)" xlink:href="#DejaVuSans-62"/>
     </g>
    </g>
   </g>
   <g id="text_11">
    <g clip-path="url(#p56f8a1532a)">
     <!-- ${q}_{2}$ |0&gt; -->
     <g transform="translate(34.852372 138.76905)scale(0.1625 -0.1625)">
      <use transform="translate(0 0.578125)" xlink:href="#DejaVuSans-Oblique-113"/>
      <use transform="translate(63.476562 -15.828125)scale(0.7)" xlink:href="#DejaVuSans-50"/>
      <use transform="translate(110.74707 0.578125)" xlink:href="#DejaVuSans-32"/>
      <use transform="translate(142.53418 0.578125)" xlink:href="#DejaVuSans-124"/>
      <use transform="translate(176.225586 0.578125)" xlink:href="#DejaVuSans-48"/>
      <use transform="translate(239.848633 0.578125)" xlink:href="#DejaVuSans-62"/>
     </g>
    </g>
   </g>
   <g id="text_12">
    <g clip-path="url(#p56f8a1532a)">
     <!-- ${q}_{3}$ |0&gt; -->
     <g transform="translate(34.852372 184.22005)scale(0.1625 -0.1625)">
      <use transform="translate(0 0.578125)" xlink:href="#DejaVuSans-Oblique-113"/>
      <use transform="translate(63.476562 -15.828125)scale(0.7)" xlink:href="#DejaVuSans-51"/>
      <use transform="translate(110.74707 0.578125)" xlink:href="#DejaVuSans-32"/>
      <use transform="translate(142.53418 0.578125)" xlink:href="#DejaVuSans-124"/>
      <use transform="translate(176.225586 0.578125)" xlink:href="#DejaVuSans-48"/>
      <use transform="translate(239.848633 0.578125)" xlink:href="#DejaVuSans-62"/>
     </g>
    </g>
   </g>
   <g id="text_13">
    <g clip-path="url(#p56f8a1532a)">
     <!-- ${q}_{4}$ |0&gt; -->
     <g transform="translate(34.852372 229.67105)scale(0.1625 -0.1625)">
      <use transform="translate(0 0.578125)" xlink:href="#DejaVuSans-Oblique-113"/>
      <use transform="translate(63.476562 -15.828125)scale(0.7)" xlink:href="#DejaVuSans-52"/>
      <use transform="translate(110.74707 0.578125)" xlink:href="#DejaVuSans-32"/>
      <use transform="translate(142.53418 0.578125)" xlink:href="#DejaVuSans-124"/>
      <use transform="translate(176.225586 0.578125)" xlink:href="#DejaVuSans-48"/>
      <use transform="translate(239.848633 0.578125)" xlink:href="#DejaVuSans-62"/>
     </g>
    </g>
   </g>
   <g id="text_14">
    <g clip-path="url(#p56f8a1532a)">
     <!-- ${q}_{5}$ |0&gt; -->
     <g transform="translate(34.852372 275.12205)scale(0.1625 -0.1625)">
      <use transform="translate(0 0.578125)" xlink:href="#DejaVuSans-Oblique-113"/>
      <use transform="translate(63.476562 -15.828125)scale(0.7)" xlink:href="#DejaVuSans-53"/>
      <use transform="translate(110.74707 0.578125)" xlink:href="#DejaVuSans-32"/>
      <use transform="translate(142.53418 0.578125)" xlink:href="#DejaVuSans-124"/>
      <use transform="translate(176.225586 0.578125)" xlink:href="#DejaVuSans-48"/>
      <use transform="translate(239.848633 0.578125)" xlink:href="#DejaVuSans-62"/>
     </g>
    </g>
   </g>
   <g id="text_15">
    <g clip-path="url(#p56f8a1532a)">
     <!-- ${q}_{6}$ |0&gt; -->
     <g transform="translate(34.852372 320.57305)scale(0.1625 -0.1625)">
      <use transform="translate(0 0.578125)" xlink:href="#DejaVuSans-Oblique-113"/>
      <use transform="translate(63.476562 -15.828125)scale(0.7)" xlink:href="#DejaVuSans-54"/>
      <use transform="translate(110.74707 0.578125)" xlink:href="#DejaVuSans-32"/>
      <use transform="translate(142.53418 0.578125)" xlink:href="#DejaVuSans-124"/>
      <use transform="translate(176.225586 0.578125)" xlink:href="#DejaVuSans-48"/>
      <use transform="translate(239.848633 0.578125)" xlink:href="#DejaVuSans-62"/>
     </g>
    </g>
   </g>
   <g id="text_16">
    <g clip-path="url(#p56f8a1532a)">
     <!-- ${q}_{7}$ |0&gt; -->
     <g transform="translate(34.852372 366.02405)scale(0.1625 -0.1625)">
      <use transform="translate(0 0.578125)" xlink:href="#DejaVuSans-Oblique-113"/>
      <use transform="translate(63.476562 -15.828125)scale(0.7)" xlink:href="#DejaVuSans-55"/>
      <use transform="translate(110.74707 0.578125)" xlink:href="#DejaVuSans-32"/>
      <use transform="translate(142.53418 0.578125)" xlink:href="#DejaVuSans-124"/>
      <use transform="translate(176.225586 0.578125)" xlink:href="#DejaVuSans-48"/>
      <use transform="translate(239.848633 0.578125)" xlink:href="#DejaVuSans-62"/>
     </g>
    </g>
   </g>
   <g id="text_17">
    <g clip-path="url(#p56f8a1532a)">
     <!-- 8 -->
     <g transform="translate(101.137672 400.460825)scale(0.104 -0.104)">
      <defs>
       <path d="M 31.78125 34.625 
Q 24.75 34.625 20.71875 30.859375 
Q 16.703125 27.09375 16.703125 20.515625 
Q 16.703125 13.921875 20.71875 10.15625 
Q 24.75 6.390625 31.78125 6.390625 
Q 38.8125 6.390625 42.859375 10.171875 
Q 46.921875 13.96875 46.921875 20.515625 
Q 46.921875 27.09375 42.890625 30.859375 
Q 38.875 34.625 31.78125 34.625 
z
M 21.921875 38.8125 
Q 15.578125 40.375 12.03125 44.71875 
Q 8.5 49.078125 8.5 55.328125 
Q 8.5 64.0625 14.71875 69.140625 
Q 20.953125 74.21875 31.78125 74.21875 
Q 42.671875 74.21875 48.875 69.140625 
Q 55.078125 64.0625 55.078125 55.328125 
Q 55.078125 49.078125 51.53125 44.71875 
Q 48 40.375 41.703125 38.8125 
Q 48.828125 37.15625 52.796875 32.3125 
Q 56.78125 27.484375 56.78125 20.515625 
Q 56.78125 9.90625 50.3125 4.234375 
Q 43.84375 -1.421875 31.78125 -1.421875 
Q 19.734375 -1.421875 13.25 4.234375 
Q 6.78125 9.90625 6.78125 20.515625 
Q 6.78125 27.484375 10.78125 32.3125 
Q 14.796875 37.15625 21.921875 38.8125 
z
M 18.3125 54.390625 
Q 18.3125 48.734375 21.84375 45.5625 
Q 25.390625 42.390625 31.78125 42.390625 
Q 38.140625 42.390625 41.71875 45.5625 
Q 45.3125 48.734375 45.3125 54.390625 
Q 45.3125 60.0625 41.71875 63.234375 
Q 38.140625 66.40625 31.78125 66.40625 
Q 25.390625 66.40625 21.84375 63.234375 
Q 18.3125 60.0625 18.3125 54.390625 
z
" id="DejaVuSans-56"/>
      </defs>
      <use xlink:href="#DejaVuSans-56"/>
     </g>
    </g>
   </g>
   <g id="text_18">
    <g clip-path="url(#p56f8a1532a)">
     <!-- meas 0 -->
     <g transform="translate(27.748075 411.652784)scale(0.1625 -0.1625)">
      <defs>
       <path d="M 52 44.1875 
Q 55.375 50.25 60.0625 53.125 
Q 64.75 56 71.09375 56 
Q 79.640625 56 84.28125 50.015625 
Q 88.921875 44.046875 88.921875 33.015625 
L 88.921875 0 
L 79.890625 0 
L 79.890625 32.71875 
Q 79.890625 40.578125 77.09375 44.375 
Q 74.3125 48.1875 68.609375 48.1875 
Q 61.625 48.1875 57.5625 43.546875 
Q 53.515625 38.921875 53.515625 30.90625 
L 53.515625 0 
L 44.484375 0 
L 44.484375 32.71875 
Q 44.484375 40.625 41.703125 44.40625 
Q 38.921875 48.1875 33.109375 48.1875 
Q 26.21875 48.1875 22.15625 43.53125 
Q 18.109375 38.875 18.109375 30.90625 
L 18.109375 0 
L 9.078125 0 
L 9.078125 54.6875 
L 18.109375 54.6875 
L 18.109375 46.1875 
Q 21.1875 51.21875 25.484375 53.609375 
Q 29.78125 56 35.6875 56 
Q 41.65625 56 45.828125 52.96875 
Q 50 49.953125 52 44.1875 
z
" id="DejaVuSans-109"/>
       <path d="M 56.203125 29.59375 
L 56.203125 25.203125 
L 14.890625 25.203125 
Q 15.484375 15.921875 20.484375 11.0625 
Q 25.484375 6.203125 34.421875 6.203125 
Q 39.59375 6.203125 44.453125 7.46875 
Q 49.3125 8.734375 54.109375 11.28125 
L 54.109375 2.78125 
Q 49.265625 0.734375 44.1875 -0.34375 
Q 39.109375 -1.421875 33.890625 -1.421875 
Q 20.796875 -1.421875 13.15625 6.1875 
Q 5.515625 13.8125 5.515625 26.8125 
Q 5.515625 40.234375 12.765625 48.109375 
Q 20.015625 56 32.328125 56 
Q 43.359375 56 49.78125 48.890625 
Q 56.203125 41.796875 56.203125 29.59375 
z
M 47.21875 32.234375 
Q 47.125 39.59375 43.09375 43.984375 
Q 39.0625 48.390625 32.421875 48.390625 
Q 24.90625 48.390625 20.390625 44.140625 
Q 15.875 39.890625 15.1875 32.171875 
z
" id="DejaVuSans-101"/>
       <path d="M 34.28125 27.484375 
Q 23.390625 27.484375 19.1875 25 
Q 14.984375 22.515625 14.984375 16.5 
Q 14.984375 11.71875 18.140625 8.90625 
Q 21.296875 6.109375 26.703125 6.109375 
Q 34.1875 6.109375 38.703125 11.40625 
Q 43.21875 16.703125 43.21875 25.484375 
L 43.21875 27.484375 
z
M 52.203125 31.203125 
L 52.203125 0 
L 43.21875 0 
L 43.21875 8.296875 
Q 40.140625 3.328125 35.546875 0.953125 
Q 30.953125 -1.421875 24.3125 -1.421875 
Q 15.921875 -1.421875 10.953125 3.296875 
Q 6 8.015625 6 15.921875 
Q 6 25.140625 12.171875 29.828125 
Q 18.359375 34.515625 30.609375 34.515625 
L 43.21875 34.515625 
L 43.21875 35.40625 
Q 43.21875 41.609375 39.140625 45 
Q 35.0625 48.390625 27.6875 48.390625 
Q 23 48.390625 18.546875 47.265625 
Q 14.109375 46.140625 10.015625 43.890625 
L 10.015625 52.203125 
Q 14.9375 54.109375 19.578125 55.046875 
Q 24.21875 56 28.609375 56 
Q 40.484375 56 46.34375 49.84375 
Q 52.203125 43.703125 52.203125 31.203125 
z
" id="DejaVuSans-97"/>
       <path d="M 44.28125 53.078125 
L 44.28125 44.578125 
Q 40.484375 46.53125 36.375 47.5 
Q 32.28125 48.484375 27.875 48.484375 
Q 21.1875 48.484375 17.84375 46.4375 
Q 14.5 44.390625 14.5 40.28125 
Q 14.5 37.15625 16.890625 35.375 
Q 19.28125 33.59375 26.515625 31.984375 
L 29.59375 31.296875 
Q 39.15625 29.25 43.1875 25.515625 
Q 47.21875 21.78125 47.21875 15.09375 
Q 47.21875 7.46875 41.1875 3.015625 
Q 35.15625 -1.421875 24.609375 -1.421875 
Q 20.21875 -1.421875 15.453125 -0.5625 
Q 10.6875 0.296875 5.421875 2 
L 5.421875 11.28125 
Q 10.40625 8.6875 15.234375 7.390625 
Q 20.0625 6.109375 24.8125 6.109375 
Q 31.15625 6.109375 34.5625 8.28125 
Q 37.984375 10.453125 37.984375 14.40625 
Q 37.984375 18.0625 35.515625 20.015625 
Q 33.0625 21.96875 24.703125 23.78125 
L 21.578125 24.515625 
Q 13.234375 26.265625 9.515625 29.90625 
Q 5.8125 33.546875 5.8125 39.890625 
Q 5.8125 47.609375 11.28125 51.796875 
Q 16.75 56 26.8125 56 
Q 31.78125 56 36.171875 55.265625 
Q 40.578125 54.546875 44.28125 53.078125 
z
" id="DejaVuSans-115"/>
      </defs>
      <use xlink:href="#DejaVuSans-109"/>
      <use x="97.412109" xlink:href="#DejaVuSans-101"/>
      <use x="158.935547" xlink:href="#DejaVuSans-97"/>
      <use x="220.214844" xlink:href="#DejaVuSans-115"/>
      <use x="272.314453" xlink:href="#DejaVuSans-32"/>
      <use x="304.101562" xlink:href="#DejaVuSans-48"/>
     </g>
    </g>
   </g>
  </g>
 </g>
 <defs>
  <clipPath id="p56f8a1532a">
   <rect height="427.2394" width="507.541772" x="7.2" y="7.2"/>
  </clipPath>
 </defs>
</svg>
